<svg version="1.2" xmlns="http://www.w3.org/2000/svg" viewBox="0 0 32 32" width="32" height="32"><style>.a{fill:#44bae0}.b{fill:#d8d8d8}</style><path  d="m16 31c-8.3 0-15-6.7-15-15 0-8.3 6.7-15 15-15 8.3 0 15 6.7 15 15 0 8.3-6.7 15-15 15z"/><path class="a" d="m13.9 18l-4.9-13.1h3.4l3.5 9.7 3.5-9.7h3.4l-4.9 13.1z"/><path class="b" d="m5 26v-7.3h1.5l1.8 5 1.9-5h1.5v7.3h-1v-6.4l-1.9 5h-1l-1.9-5v6.4zm12.4-2.7l-1.3-3.6-1.3 3.6zm-4.7 2.7l2.8-7.3h1.1l2.8 7.3h-1.1l-0.6-1.9h-3.3l-0.7 1.9zm9.7-3.9l-2.3-3.4h1.1l1.8 2.7 1.8-2.7h1.1l-2.4 3.5 2.5 3.8h-1l-2.1-3.1-2.1 3.1h-1z"/></svg>